<svg version="1.2" xmlns="http://www.w3.org/2000/svg" viewBox="0 0 1555 1396" width="1555" height="1396">
	<title>BIRG</title>
	<style>
		.s0 { fill: #0000ff } 
	</style>
	<path id="Layer" fill-rule="evenodd" class="s0" d="m1555 0.3v179.6c0 214-753.5 194.3-769.1 400.4h-16.7c-14.6-206.1-769.1-186.1-769.1-400.4v-179.6h17c0 172.2 752.8 190.9 752.8 375.9h16.6c0-185 753.2-203.7 753.2-375.9zm-15.7 407.5c0 172.1-752.8 190.9-752.8 375.9h-16.6c0-185-752.8-203.8-752.8-375.9h-17v179.6c0 214.3 754.1 194.3 769.1 400.7h16.7c15.3-206.4 769.1-186.7 769.1-400.7v-179.6zm0 407.5c0 172.1-752.8 190.9-752.8 376.2h-16.7c0-185.3-752.8-204.1-752.8-376.2h-17v179.6c0 215 754.5 194.6 769.1 400.7h16.7c15.7-206.1 769.1-186.7 769.1-400.7v-179.6z"/>
</svg>