<svg width="146" height="143" viewBox="0 0 146 143" fill="none" xmlns="http://www.w3.org/2000/svg">
<path d="M143.79 110C143.79 125.481 73.7513 126.345 73.7513 143H72.2519C72.2519 126.345 1.51255 125.481 1.51255 110H0V0H145.3V110H143.79Z" fill="#0000FF"/>
<path d="M114.306 51.66C115.333 51.66 116.295 52.0125 117 52.4965V50.1605C116.467 49.8933 115.314 49.5617 113.809 49.5617C110.116 49.5617 108.601 51.7901 108.601 54.6186V67.7847H112.277V57.7968H114.872V55.686H112.277V54.0311C112.277 52.67 113.024 51.6544 114.306 51.66ZM99.8934 55.167C101.88 55.153 102.723 56.9295 102.762 60.6911C102.8 64.3981 101.958 66.0823 99.8934 66.0823C97.8328 66.0823 97.0355 64.3981 97.0355 60.6911C97.0355 56.8022 97.8231 55.1796 99.8934 55.167ZM99.9185 68.2016C103.402 68.2016 106.661 66.1746 106.633 60.6911C106.608 55.174 103.68 53.0393 99.9185 53.0687C96.3235 53.0855 93.1495 55.1782 93.1579 60.6911C93.1761 66.2012 96.441 68.2016 99.9185 68.2016ZM51.1712 63.7084C51.1712 62.041 52.7757 61.2017 54.3913 60.7386C55.046 60.554 55.7608 60.3805 56.2504 60.2616V64.7366C55.7902 65.159 54.604 65.7885 53.3338 65.7885C51.9643 65.7885 51.1782 65.0989 51.1712 63.7084ZM56.5176 66.7789C56.6001 67.1188 56.7134 67.5763 56.7708 67.7819H60.233C60.0553 67.2112 59.9042 66.1312 59.9042 64.7869V57.6528C59.9042 53.459 56.7792 53.0687 54.0304 53.0687C49.3512 53.0687 48.0853 55.6104 48.0853 57.5241L51.4467 57.5185C51.4537 55.886 52.7015 55.0341 54.078 55.0341C55.2153 55.0341 56.2504 55.5475 56.2504 57.3898V58.2892C55.6783 58.4585 53.096 59.0502 51.9209 59.3384C49.2519 59.9749 47.3886 61.3066 47.404 64.0581C47.4138 66.7747 49.2673 68.2016 52.0161 68.2016C54.4976 68.1988 56.0574 67.0951 56.5176 66.7789ZM38.2793 65.7829H36.9728V59.2209H38.2793C40.3048 59.2167 41.7443 60.1665 41.7708 62.3627C41.7834 64.5631 40.6895 65.7829 38.2793 65.7829ZM36.9728 51.9608H37.9715C39.6628 51.9538 41.0728 52.484 41.07 54.4619C41.0672 56.4134 39.8698 57.2135 37.9576 57.2191H36.9728V51.9608ZM45.9954 62.6285C45.9954 59.3971 43.1067 58.1158 41.2239 58.0123C43.1109 57.6024 45.0637 56.619 45.0637 53.9234C45.0637 51.1173 42.8228 49.9744 40.3188 49.9674H33V67.7833H39.5299C43.0382 67.7945 45.9954 66.1312 45.9954 62.6285ZM70.8377 58.6725V67.7833H74.4859V58.4893C74.4859 56.1839 74.0872 53.0687 69.9718 53.0687C68.04 53.0687 66.3893 54.1598 65.8382 54.5123V53.4478H62.1886V67.7833H65.8382V56.7603C66.4159 56.2945 67.4581 55.5293 68.6219 55.5293C70.4124 55.5293 70.8433 56.5854 70.8377 58.6725ZM76.7758 49.9674V67.7833H80.4479V49.9674H76.7758ZM84.236 59.0558L88.8746 53.4478H85.7271L80.4479 59.7454L84.5437 67.7847H89.0718L84.236 59.0558ZM52.6581 78.991C52.8456 77.2941 53.345 75.0168 55.4685 75.0056C57.5877 75.0056 58.1403 77.2326 58.2382 78.991H52.6581ZM55.4685 72.9101C51.7391 72.9143 48.7399 75.2756 48.7274 80.2989C48.719 86.121 51.7825 88.0416 55.4685 88.0416C58.3711 88.0416 61.2066 86.7602 61.9647 82.7917L58.1403 82.7847C57.922 84.6549 57.2394 85.9349 55.4685 85.9293C53.2513 85.9195 52.619 84.0045 52.6148 80.9018H62.1312C62.1424 80.6948 62.1424 80.4863 62.1424 80.2779C62.1578 75.2546 59.0733 72.9101 55.4685 72.9101ZM78.6755 84.5766C78.2125 85.0005 77.0318 85.63 75.7631 85.63C74.3922 85.63 73.6088 84.9389 73.6032 83.5485C73.6004 81.881 75.2063 81.0417 76.8192 80.5787C77.4795 80.394 78.1957 80.222 78.6755 80.1031V84.5766ZM82.3377 77.4942C82.3377 73.299 79.2071 72.9101 76.4639 72.9101C71.7847 72.9101 70.509 75.4505 70.509 77.3641L73.8746 77.3585C73.8774 75.7246 75.1252 74.8741 76.5073 74.8741C77.6417 74.8741 78.6755 75.3889 78.6755 77.2298V78.1293C78.102 78.2985 75.5211 78.8902 74.3488 79.1784C71.6714 79.8163 69.8151 81.1466 69.8305 83.8982C69.8459 86.6148 71.691 88.0416 74.4495 88.0416C76.9283 88.0388 78.4894 86.9351 78.9427 86.6203C79.0266 86.9603 79.1399 87.4163 79.1973 87.6219H82.6608C82.4846 87.0526 82.3377 85.9727 82.3377 84.627V77.4942ZM64.1665 87.6247H67.8399V69.8088H64.1665V87.6247ZM92.5508 72.9101C90.6175 72.9101 88.9683 73.9998 88.4143 74.3523V73.2878H84.7703V87.6247H88.4143V76.6003C88.9991 76.1345 90.0356 75.3707 91.1995 75.3707C92.9886 75.3707 93.4167 76.4255 93.4167 78.5126V87.6247H97.0635V78.3293C97.0635 76.024 96.6704 72.9101 92.5508 72.9101ZM108.601 84.2297C108.331 84.6983 107.162 85.7978 105.935 85.7978C104.31 85.7978 102.918 84.8816 102.926 80.408C102.934 76.1345 104.398 75.1679 105.908 75.1679C107.2 75.1679 108.257 76.1219 108.601 76.6968V84.2297ZM108.601 74.2516C107.833 73.5648 106.64 72.9213 104.936 72.9325C102.726 72.9325 99.0401 74.1887 99.0317 80.4192C99.0177 86.3699 101.95 88.0514 104.717 88.0416C106.899 88.0248 108.463 86.6637 108.601 86.5434V87.6247H112.277V69.8088H108.601V74.2516ZM33 87.6247H36.97V69.8088H33V87.6247ZM43.3571 75.1413V73.2878H39.6865L39.6893 87.6247H43.3571V79.426C43.3571 75.9065 46.4262 75.6687 48.1748 75.7442V72.9507C45.3603 72.6233 43.6803 74.3579 43.3571 75.1413ZM86.9274 22C86.9274 24.6956 75.1308 24.9894 75.1308 27.8906H74.8692C74.8692 24.9894 63.0726 24.6956 63.0726 22H62.8083V24.8131C62.8083 28.1732 74.6286 27.8584 74.8692 31.0898H75.1308C75.3714 27.8584 87.1903 28.1732 87.1903 24.8131V22H86.9274Z" fill="white"/>
<path d="M86.9274 28.3844C86.9274 31.0814 75.1308 31.3738 75.1308 34.275H74.8692C74.8692 31.3738 63.0726 31.0814 63.0726 28.3844H62.8083V31.1975C62.8083 34.559 74.6286 34.2442 74.8692 37.4742H75.1308C75.3714 34.2442 87.1903 34.559 87.1903 31.1975V28.3844H86.9274Z" fill="white"/>
<path d="M75.1308 40.6594C75.1308 37.7581 86.9274 37.4658 86.9274 34.7688H87.1903V37.5833C87.1903 40.942 75.3714 40.6272 75.1308 43.8586H74.8692C74.6286 40.6272 62.8083 40.942 62.8083 37.5833V34.7688H63.0726C63.0726 37.4658 74.8692 37.7581 74.8692 40.6594H75.1308Z" fill="white"/>
</svg>
